<svg xmlns="http://www.w3.org/2000/svg"  viewBox="0 0 256 256" width="128px" height="128px"><path fill="#13bf6d" d="M245.88,136.447a2.042,2.042,0,0,1,.81,1.6v24.173H9.31V138.239a2.041,2.041,0,0,1,.834-1.621,18.585,18.585,0,0,0,7.376-14.834,18.507,18.507,0,0,0-7.372-14.8,2.042,2.042,0,0,1-.838-1.624V87.964a5.53,5.53,0,0,1,5.53-5.53H241.15a5.54,5.54,0,0,1,5.54,5.54v17.564a2.043,2.043,0,0,1-.81,1.6A18.573,18.573,0,0,0,245.88,136.447Z"/><path fill="#76ffba" d="M235.69,153.724h-4a2.5,2.5,0,0,1,0-5h4a2.5,2.5,0,0,1,0,5Zm-14,0H20.31a2.5,2.5,0,0,1-2.5-2.5v-8.977a2.5,2.5,0,0,1,.694-1.728,26.971,26.971,0,0,0,7.516-18.735,26.9,26.9,0,0,0-7.514-18.715,2.5,2.5,0,0,1-.7-1.731v-7.9a2.5,2.5,0,0,1,5,0v6.921a31.872,31.872,0,0,1,8.21,21.429,31.94,31.94,0,0,1-8.21,21.444v5.5H221.69a2.5,2.5,0,0,1,0,5Z"/><path fill="#f0c020" d="M246.69,162.224v14.91a5.54,5.54,0,0,1-5.54,5.54H14.85a5.54,5.54,0,0,1-5.54-5.54v-14.91Z"/><path fill="#f9e5af" d="M235.69,174.951h-202a2.5,2.5,0,1,1,0-5h202a2.5,2.5,0,0,1,0,5Zm-212,0H20.31a2.5,2.5,0,0,1,0-5h3.38a2.5,2.5,0,0,1,0,5Z"/><rect width="41.82" height="28.079" x="30.726" y="107.753" fill="#7c7b7a" rx="2" ry="2" transform="rotate(90 51.636 121.792)"/><rect width="41.82" height="28.079" x="81.635" y="107.753" fill="#7c7b7a" rx="2" ry="2" transform="rotate(90 102.545 121.792)"/><rect width="41.82" height="28.079" x="132.545" y="107.753" fill="#7c7b7a" rx="2" ry="2" transform="rotate(90 153.455 121.792)"/><rect width="41.82" height="28.079" x="183.454" y="107.753" fill="#7c7b7a" rx="2" ry="2" transform="rotate(90 204.364 121.792)"/><path fill="#f0c020" d="M55.933,211.129c-3.683-1.217-7.487-2.28-9.623-11.48-1.967,8.473-5.118,9.992-9.623,11.48,7.347,2.428,8.455,6.448,9.623,11.481C48.323,213.933,51.653,212.544,55.933,211.129Z"/><path fill="#f0c020" d="M186.55,44.865c-3.683-1.217-7.487-2.281-9.623-11.481-1.967,8.473-5.118,9.992-9.622,11.481,7.346,2.427,8.455,6.447,9.622,11.48C178.94,47.669,182.27,46.279,186.55,44.865Z"/><path fill="#f0c020" d="M219.313,56.342c-3.684-1.217-7.487-2.281-9.623-11.48-1.967,8.473-5.119,9.992-9.623,11.48,7.347,2.428,8.455,6.447,9.623,11.481C211.7,59.146,215.033,57.756,219.313,56.342Z"/><path d="M39.6,98.382a4.5,4.5,0,0,0-4.5,4.5V140.7a4.5,4.5,0,0,0,4.5,4.5H63.675a4.5,4.5,0,0,0,4.5-4.5v-37.82a4.5,4.5,0,0,0-4.5-4.5ZM63.175,140.2H40.1v-36.82H63.175Z"/><path d="M90.506,98.382a4.5,4.5,0,0,0-4.5,4.5V140.7a4.5,4.5,0,0,0,4.5,4.5h24.078a4.5,4.5,0,0,0,4.5-4.5v-37.82a4.5,4.5,0,0,0-4.5-4.5Zm23.578,41.82H91.006v-36.82h23.078Z"/><path d="M56.709,208.781c-3.468-1.142-6.177-1.881-7.99-9.692a2.475,2.475,0,0,0-4.818,0c-1.773,7.638-4.246,8.455-7.989,9.692a2.475,2.475,0,0,0,0,4.7c6.217,2.054,6.922,5.092,7.989,9.691a2.474,2.474,0,0,0,4.819,0c1.771-7.637,4.379-8.5,7.989-9.691A2.476,2.476,0,0,0,56.709,208.781Zm-10.35,6.5a12.835,12.835,0,0,0-3.872-4.094,12.264,12.264,0,0,0,3.832-4.313,12.624,12.624,0,0,0,3.7,4.279A12.238,12.238,0,0,0,46.359,215.28Z"/><path d="M166.529,47.213c6.217,2.055,6.922,5.092,7.989,9.691a2.474,2.474,0,0,0,4.819,0c1.771-7.636,4.379-8.5,7.989-9.691a2.476,2.476,0,0,0,0-4.7c-3.468-1.142-6.176-1.881-7.99-9.691a2.475,2.475,0,0,0-4.818,0c-1.773,7.637-4.246,8.454-7.989,9.692A2.475,2.475,0,0,0,166.529,47.213Zm10.408-6.605a12.612,12.612,0,0,0,3.7,4.279,12.239,12.239,0,0,0-3.658,4.129,12.852,12.852,0,0,0-3.873-4.095A12.266,12.266,0,0,0,176.937,40.608Z"/><path d="M199.291,58.691c6.218,2.054,6.923,5.092,7.989,9.691a2.474,2.474,0,0,0,4.819,0c1.772-7.637,4.38-8.5,7.989-9.691a2.475,2.475,0,0,0,0-4.7c-3.467-1.142-6.176-1.881-7.989-9.692a2.475,2.475,0,0,0-4.818,0c-1.774,7.637-4.246,8.455-7.99,9.692A2.476,2.476,0,0,0,199.291,58.691ZM209.7,52.086a12.623,12.623,0,0,0,3.7,4.279,12.238,12.238,0,0,0-3.659,4.128,12.86,12.86,0,0,0-3.872-4.095A12.251,12.251,0,0,0,209.7,52.086Z"/><path d="M165.494,98.382H141.416a4.5,4.5,0,0,0-4.5,4.5V140.7a4.5,4.5,0,0,0,4.5,4.5h24.078a4.5,4.5,0,0,0,4.5-4.5v-37.82A4.5,4.5,0,0,0,165.494,98.382Zm-.5,41.82H141.916v-36.82h23.078Z"/><path d="M220.9,102.88a4.506,4.506,0,0,0-4.5-4.5H192.33a4.5,4.5,0,0,0-4.5,4.5V140.7a4.5,4.5,0,0,0,4.5,4.5H216.4a4.507,4.507,0,0,0,4.5-4.5v-12a2.5,2.5,0,0,0-5,0v11.5H192.82V103.38H215.9v5.32a2.505,2.505,0,0,0,5.01,0Z"/><circle cx="218.4" cy="118.7" r="2.5"/><circle cx="166.67" cy="82.43" r="2.5"/><path d="M247.42,109.109a4.545,4.545,0,0,0,1.77-3.569V87.97a8.053,8.053,0,0,0-8.04-8.04H176.67a2.5,2.5,0,0,0,0,5h64.48a3.057,3.057,0,0,1,3.04,3.04v17.32a21.072,21.072,0,0,0,0,33.01v21.429H11.81v-21.24a21.082,21.082,0,0,0,8.21-16.71,21.008,21.008,0,0,0-8.21-16.67V87.96a3.047,3.047,0,0,1,3.03-3.03H156.67a2.5,2.5,0,0,0,0-5H14.84a8.055,8.055,0,0,0-8.03,8.03v17.4a4.57,4.57,0,0,0,1.83,3.62,15.916,15.916,0,0,1,6.38,12.8A16,16,0,0,1,8.63,134.62a4.588,4.588,0,0,0-1.82,3.619V177.13a8.024,8.024,0,0,0,7.92,8.04h.04a2.5,2.5,0,0,0,.03-5,3.042,3.042,0,0,1-2.99-3.04V164.72H40.724v15.45H34.77a2.5,2.5,0,0,0,0,5H241.15a8.053,8.053,0,0,0,8.04-8.04V138.05a4.568,4.568,0,0,0-1.77-3.58A16.066,16.066,0,0,1,247.42,109.109ZM113.545,164.72h28.91v15.45h-28.91Zm-5,15.45H79.634V164.72h28.911Zm38.91-15.45h28.911v15.45H147.455Zm33.911,0h28.91v15.45h-28.91Zm-135.642,0h28.91v15.45H45.724ZM244.19,177.13a3.045,3.045,0,0,1-3.04,3.04H215.276V164.72H244.19Z"/><path d="M24.77,180.17a2.5,2.5,0,1,0,2.49,2.5A2.507,2.507,0,0,0,24.77,180.17Z"/><path fill="#afafaf" d="M56.659,135.029H46.612a2.5,2.5,0,0,1-2.5-2.5V111.054a2.5,2.5,0,0,1,5,0v18.975h7.547a2.5,2.5,0,0,1,0,5Z"/><path fill="#afafaf" d="M107.568,135.029H97.522a2.5,2.5,0,0,1-2.5-2.5V111.054a2.5,2.5,0,0,1,5,0v18.975h7.546a2.5,2.5,0,0,1,0,5Z"/><path fill="#afafaf" d="M158.478,135.029H148.432a2.5,2.5,0,0,1-2.5-2.5V111.054a2.5,2.5,0,0,1,5,0v18.975h7.546a2.5,2.5,0,0,1,0,5Z"/><path fill="#afafaf" d="M209.388,135.029H199.341a2.5,2.5,0,0,1-2.5-2.5V111.054a2.5,2.5,0,1,1,5,0v18.975h7.547a2.5,2.5,0,1,1,0,5Z"/></svg>