<svg xmlns="http://www.w3.org/2000/svg"  viewBox="0 0 100 100" width="100px" height="100px"><path fill="#fff" d="M80.8 31.900000000000002A0.7 0.7 0 1 0 80.8 33.300000000000004A0.7 0.7 0 1 0 80.8 31.900000000000002Z"/><path fill="#f1bc19" d="M78.1 12.6A0.9 0.9 0 1 0 78.1 14.4A0.9 0.9 0 1 0 78.1 12.6Z"/><path fill="#cee1f4" d="M50.9 13.299999999999997A37.5 37.5 0 1 0 50.9 88.3A37.5 37.5 0 1 0 50.9 13.299999999999997Z"/><path fill="#f1bc19" d="M83.6 11.6A4 4 0 1 0 83.6 19.6A4 4 0 1 0 83.6 11.6Z"/><path fill="#78a0cf" d="M13.4 27.400000000000002A1.9 1.9 0 1 0 13.4 31.2A1.9 1.9 0 1 0 13.4 27.400000000000002Z"/><path fill="#fbcd59" d="M78.6 75.39999999999999A1.9 1.9 0 1 0 78.6 79.2 1.9 1.9 0 1 0 78.6 75.39999999999999zM16.8 74.1A4 4 0 1 0 16.8 82.1 4 4 0 1 0 16.8 74.1z"/><path fill="#78a0cf" d="M24.5 80.89999999999999A1.9 1.9 0 1 0 24.5 84.7A1.9 1.9 0 1 0 24.5 80.89999999999999Z"/><path fill="#fff" d="M67.2 76.60000000000001A2.6 2.6 0 1 0 67.2 81.8 2.6 2.6 0 1 0 67.2 76.60000000000001zM16.1 47A.9.9 0 1 0 16.1 48.8.9.9 0 1 0 16.1 47z"/><path fill="#f1bc19" d="M85.3 30.3A0.9 0.9 0 1 0 85.3 32.1A0.9 0.9 0 1 0 85.3 30.3Z"/><path fill="#fff" d="M80.5 64.60000000000001A1.8 1.8 0 1 0 80.5 68.2A1.8 1.8 0 1 0 80.5 64.60000000000001Z"/><path fill="#78a0cf" d="M77.8,42.7h-45c-1.9,0-3.5,1.9-3.5,4.3v1.3c-0.1,1.7,0.8,3.2,2.3,4l2.7,15c0.6,2.3,1,4.2,2.2,4.2 h37.5c1.2,0,1.9-2,2.2-4.2l2.6-15c1.5-0.8,2.4-2.3,2.3-4V47C81.3,44.7,79.7,42.7,77.8,42.7z"/><path fill="#472b29" d="M74.1,72H36.6c-1.6,0-2.1-2-2.7-4.4l-0.1-0.2l-2.7-14.8c-1.5-0.9-2.4-2.6-2.4-4.3l0-1.3 c0-2.6,1.8-4.8,4-4.8h45c2.2,0,4,2.1,4,4.8v1.3c0.1,1.8-0.8,3.4-2.4,4.3l-2.6,14.8C76.4,70.5,75.5,72,74.1,72z M32.8,43.2 c-1.6,0-3,1.7-3,3.8v1.3c-0.1,1.5,0.7,2.9,2,3.6c0.1,0.1,0.2,0.2,0.3,0.4l2.8,15.2c0.5,1.9,0.9,3.6,1.7,3.6h37.5 c0.7,0,1.4-1.4,1.7-3.8l2.6-15c0-0.2,0.1-0.3,0.3-0.4c1.3-0.7,2.1-2.1,2-3.5l0-1.4c0-2.1-1.3-3.8-3-3.8H32.8z"/><path fill="#472b29" d="M72.1,42.8c-0.3,0-0.5-0.2-0.5-0.5V30.4c0-2.8-2.3-5.1-5.2-5.1H44.1c-2.8,0-5.1,2.3-5.1,5.2v11.9 c0,0.3-0.2,0.5-0.5,0.5S38,42.6,38,42.3V30.4c0-3.4,2.8-6.1,6.1-6.1h22.3c3.4,0,6.1,2.8,6.1,6.1v11.9 C72.6,42.6,72.3,42.8,72.1,42.8z"/><path fill="#f1bc19" d="M45.9,23.1h18c0.8,0,1.4,0.6,1.4,1.4V25c0,0.8-0.6,1.4-1.4,1.4h-18c-0.8,0-1.4-0.6-1.4-1.4v-0.4 C44.5,23.8,45.1,23.1,45.9,23.1z"/><path fill="#472b29" d="M63.9 26.9h-18c-1 0-1.9-.9-1.9-1.9v-.4c0-1 .9-1.9 1.9-1.9h18c1 0 1.9.9 1.9 1.9V25C65.8 26 64.9 26.9 63.9 26.9zM45.9 23.6c-.5 0-.9.4-.9.9V25c0 .5.4.9.9.9h18c.5 0 .9-.4.9-.9v-.4c0-.5-.4-.9-.9-.9H45.9zM75.3 52.2h-3.5c-.2 0-.3-.2-.3-.3s.2-.3.3-.3h3.5c.2 0 .3.2.3.3S75.5 52.2 75.3 52.2zM69.1 52.2h-.9c-.2 0-.3-.2-.3-.3s.2-.3.3-.3h.9c.2 0 .3.2.3.3S69.3 52.2 69.1 52.2zM65.7 52.2H30.7c-.2 0-.4-.2-.4-.3s.2-.3.4-.3h34.9c.2 0 .3.2.3.3S65.8 52.2 65.7 52.2z"/><path fill="#5187bc" d="M41.4,55.4h0.4c0.8,0,1.4,0.6,1.4,1.4v9.7c0,0.8-0.6,1.4-1.4,1.4h-0.4c-0.8,0-1.4-0.6-1.4-1.4v-9.7 C40,56,40.6,55.4,41.4,55.4z"/><path fill="#472b29" d="M41.8,68.3h-0.4c-1,0-1.8-0.8-1.8-1.7v-9.7c0-1,0.8-1.8,1.8-1.8h0.4c1,0,1.8,0.8,1.8,1.8v9.7 C43.6,67.5,42.8,68.3,41.8,68.3z M41.4,55.7c-0.6,0-1,0.5-1,1.1v9.7c0,0.6,0.5,1,1,1h0.4c0.6,0,1.1-0.5,1.1-1v-9.7 c0-0.6-0.5-1.1-1.1-1.1H41.4z"/><path fill="#5187bc" d="M50.9,55.4h0.4c0.8,0,1.4,0.6,1.4,1.4v9.7c0,0.8-0.6,1.4-1.4,1.4h-0.4c-0.8,0-1.4-0.6-1.4-1.4v-9.7 C49.5,56,50.1,55.4,50.9,55.4z"/><path fill="#472b29" d="M51.3,68.3h-0.4c-1,0-1.8-0.8-1.8-1.7v-9.7c0-1,0.8-1.8,1.8-1.8h0.4c1,0,1.7,0.8,1.7,1.8v9.7 C53.1,67.5,52.3,68.3,51.3,68.3z M50.9,55.7c-0.6,0-1,0.5-1,1.1v9.7c0,0.6,0.5,1,1,1h0.4c0.6,0,1-0.5,1-1v-9.7 c0-0.6-0.5-1.1-1-1.1H50.9z"/><path fill="#5187bc" d="M70,55.4h0.4c0.8,0,1.4,0.6,1.4,1.4v9.7c0,0.8-0.6,1.4-1.4,1.4H70c-0.8,0-1.4-0.6-1.4-1.4v-9.7 C68.6,56,69.2,55.4,70,55.4z"/><path fill="#472b29" d="M70.4,68.3H70c-1,0-1.8-0.8-1.8-1.7v-9.7c0-1,0.8-1.8,1.8-1.8h0.4c1,0,1.7,0.8,1.7,1.8v9.7 C72.1,67.5,71.3,68.3,70.4,68.3z M70,55.7c-0.6,0-1.1,0.5-1.1,1.1v9.7c0,0.6,0.5,1,1.1,1h0.4c0.6,0,1-0.5,1-1v-9.7 c0-0.6-0.5-1.1-1-1.1H70z"/><path fill="#5187bc" d="M60.4,55.4h0.4c0.8,0,1.4,0.6,1.4,1.4v9.7c0,0.8-0.6,1.4-1.4,1.4h-0.4c-0.8,0-1.4-0.6-1.4-1.4v-9.7 C59,56,59.7,55.4,60.4,55.4z"/><path fill="#472b29" d="M60.8,68.3h-0.4c-1,0-1.8-0.8-1.8-1.7v-9.7c0-1,0.8-1.8,1.8-1.8h0.4c1,0,1.8,0.8,1.8,1.8v9.7 C62.6,67.5,61.8,68.3,60.8,68.3z M60.4,55.7c-0.6,0-1.1,0.5-1.1,1.1v9.7c0,0.6,0.5,1,1.1,1h0.4c0.6,0,1.1-0.5,1.1-1v-9.7 c0-0.6-0.5-1.1-1.1-1.1H60.4z"/><path fill="#e1e0d8" d="M33.7 46.300000000000004A0.8 0.8 0 1 0 33.7 47.9A0.8 0.8 0 1 0 33.7 46.300000000000004Z"/><path fill="#472b29" d="M33.7,48.1c-0.6,0-1-0.4-1-1c0-0.6,0.4-1,1-1c0.6,0,1,0.4,1,1C34.7,47.7,34.2,48.1,33.7,48.1z M33.7,46.5c-0.3,0-0.6,0.3-0.6,0.6c0,0.3,0.3,0.6,0.6,0.6c0.3,0,0.6-0.3,0.6-0.6C34.3,46.8,34,46.5,33.7,46.5z"/><path fill="#e1e0d8" d="M76.8 46.300000000000004A0.8 0.8 0 1 0 76.8 47.9A0.8 0.8 0 1 0 76.8 46.300000000000004Z"/><path fill="#472b29" d="M76.8,48.1c-0.6,0-1-0.4-1-1c0-0.6,0.4-1,1-1s1,0.4,1,1C77.9,47.7,77.4,48.1,76.8,48.1z M76.8,46.5 c-0.3,0-0.6,0.3-0.6,0.6c0,0.3,0.3,0.6,0.6,0.6s0.6-0.3,0.6-0.6C77.5,46.8,77.2,46.5,76.8,46.5z"/><path fill="#e5ac80" d="M48.5,63.6c-0.1-1.2-0.9-2.3-2.2-2.6h-0.2l-0.4-0.2c-0.8-0.3-5.6-2.1-5.6-2.1 c-0.4-0.1-0.7-0.3-0.8-0.7c-0.2-0.6-0.2-1.2-0.2-1.9c-1.1,0.4-2.2,0.7-3.3,0.9c-1.2,0.1-3.9-1.5-3.9-1.5s-0.1,2-0.1,2.4 c-0.1,0.4-0.4,0.7-0.8,0.7l-4.6,1.7c-0.5,0.1-1,0.3-1.4,0.6c-1,0.6-1.7,1.6-2,2.7c0,0-0.3,2.1-0.3,2.2c0,0.3-0.1,0.6-0.1,1 c5,3.4,9,4.3,16,4c3.6-0.4,7-1.4,10.3-2.9C48.7,65.2,48.5,63.6,48.5,63.6z"/><path fill="#78a0cf" d="M48.5,63.7c-0.1-1.2-0.9-2.3-2.2-2.6L46.1,61l-0.4-0.2c-0.4-0.2-2-0.8-3.4-1.3 c-2.1,1-4.3,3.9-6.6,3.9s-4.6-3-6.7-3.9l0.5-0.2l0,0l-0.2,0l-2.9,1c-0.5,0.1-1,0.3-1.4,0.6c-1,0.6-1.7,1.6-2,2.7 c0,0-0.3,2.1-0.3,2.2c0,0.3-0.1,3.5-0.1,3.9c5,3.4,9,4.3,16,4c3.6-0.4,7-1.4,10.3-2.9C48.7,68.1,48.5,63.7,48.5,63.7z"/><path fill="#f1bc19" d="M41.3,59.4c-1.8,0.5-3.6,3.1-5.6,3.1s-3.9-2.7-5.6-3.1l-1.1,0.3c2.1,1,4.3,3.9,6.7,3.9 s4.6-3,6.7-3.9L41.3,59.4z"/><path fill="#47a" d="M27 72.6c-.2 0-.3-.1-.3-.3v-2.5c0-.2.1-.3.3-.3s.3.1.3.3v2.5C27.3 72.4 27.2 72.6 27 72.6zM44 73c-.2 0-.3-.1-.3-.3v-3c0-.2.1-.3.3-.3s.3.1.3.3v3C44.3 72.9 44.2 73 44 73z"/><path fill="#edbc94" d="M43.5,46.5h-0.2c-0.6,0-0.8,0.2-0.8-0.2c0-0.7,0-3.5,0-3.6c0-2.9-3-5.2-6.8-5.3h-0.2 c-3.8,0.1-6.8,2.5-6.8,5.3c0,0.1-0.1,2.9,0,3.6c0,0.4-0.1,0.1-0.8,0.2h-0.2c-0.6,0-1.2,0.4-1.4,1c0.2,1.1,0.5,2.3,0.9,3.3 c0.3,0.5,0.7,0.6,1.2,0.9c0.2,0.2,0.3,0.4,0.4,0.7c0.3,1,0.9,1.9,1.7,2.6c0.4,0.4,2.9,3.1,5.1,2.9s4.7-2.5,5.1-2.9 c0.8-0.7,1.4-1.6,1.7-2.6c0-0.3,0.2-0.5,0.4-0.7c0.5-0.3,0.9-0.4,1.2-0.9c0.4-1.1,0.7-2.2,0.9-3.3C44.7,46.9,44.2,46.5,43.5,46.5z"/><path fill="#512c2b" d="M35.7 51.7c.4 0 .9-.2 1.1-.5 0 0 0-.1 0-.1l0 0c0 0-.1 0-.1 0-.3.3-.6.4-1 .4-.4 0-.7-.1-1-.4 0 0 0 0-.1 0l0 0c0 0 0 .1 0 .1 0 0 0 0 0 0C34.9 51.5 35.3 51.7 35.7 51.7zM34.3 45.1l.3-.5c-1.2-.3-2.5-.2-3.7.1l.4.5C32.2 44.9 33.3 44.9 34.3 45.1zM40.2 45.1l.3-.5c-1.2-.3-2.5-.2-3.7.1l.3.5C38.1 44.9 39.2 44.9 40.2 45.1zM32.5 45.9c-.3 0-.6.2-.7.5 0 0 .1 0 .1 0 .3 0 .5.2.5.5 0 .3-.2.5-.5.5-.1 0-.1 0-.2-.1.1.4.4.7.8.7.5-.1.8-.5.8-1C33.4 46.4 33.1 46 32.5 45.9zM38.7 45.9c-.2 0-.5.1-.6.4 0 0 .1 0 .2 0 .3 0 .5.2.5.5 0 .3-.2.5-.5.5-.1 0-.3-.1-.3-.2-.1.4.2.9.6 1 .4.1.9-.2 1-.6 0-.1 0-.3 0-.4C39.6 46.4 39.2 46 38.7 45.9zM39.1 52.9c0 0 0-.1 0-.1l0 0c0 0-.1 0-.1 0-1 .7-2.1 1-3.3.9-1.2.1-2.3-.3-3.3-.9h0-.1c0 0 0 .1 0 .1C34.3 54.3 37 54.3 39.1 52.9L39.1 52.9zM29.3 44.2c.3-1.4.8-2.7 1.5-4-.2-.3-.6-.4-1-.3-.9 1.7-1.4 3.6-1.4 5.5 0 .9.2 1.7.5 2.6C29.1 46.7 29 45.4 29.3 44.2zM42 44.2c-.3-1.4-.8-2.7-1.5-4 .2-.3.6-.4 1-.3.9 1.7 1.4 3.6 1.3 5.5 0 .9-.2 1.7-.5 2.6C42.2 46.7 42.3 45.4 42 44.2z"/><path fill="#472b29" d="M36.2,74.3c-5.7,0-9.4-1.2-13.8-4.1c-0.1-0.1-0.2-0.2-0.2-0.3c0-2,0.1-4.1,0.4-6.1 c0.3-1.3,1.1-2.4,2.2-3c0.5-0.3,1-0.5,1.5-0.6l4.6-1.7c0.3-0.1,0.5-0.3,0.6-0.5c0-0.1,0.1-0.7,0.1-1.2c-0.4-0.3-0.8-0.7-1.2-1 c-0.9-0.8-1.5-1.7-1.8-2.8c0-0.2-0.1-0.4-0.2-0.5c-0.1-0.1-0.3-0.2-0.4-0.2c-0.3-0.2-0.6-0.4-0.9-0.8c-0.5-1.1-0.8-2.3-0.9-3.5 c0-0.1,0-0.1,0-0.1c0.2-0.7,0.9-1.2,1.7-1.3h0.2c0.1,0,0.3,0,0.4,0c0-0.7,0-2.1,0-3.2l0-0.2c0-3.1,3.1-5.6,7.1-5.8l0.2,0 c4,0.1,7.1,2.7,7.1,5.8v3.5c0.1,0,0.2,0,0.4,0h0.2c0.8,0,1.5,0.5,1.7,1.3c0,0,0,0.1,0,0.1c-0.1,1.2-0.4,2.4-0.9,3.5 c-0.2,0.5-0.6,0.7-0.9,0.8c-0.1,0.1-0.3,0.1-0.4,0.2c-0.1,0.1-0.2,0.3-0.2,0.4c-0.4,1.2-1,2.2-1.9,2.9c-0.5,0.4-0.9,0.8-1.4,1.1 c0,0.4,0,0.8,0.2,1.2c0.1,0.2,0.3,0.4,0.5,0.4c0.2,0.1,4.8,1.8,5.6,2.1l0.6,0.2c1.3,0.3,2.3,1.5,2.4,2.9c0,0,0,0,0,0 c0,0,0.2,4.5,0.4,7.2c0,0.2-0.1,0.3-0.2,0.4c-3.3,1.6-6.8,2.6-10.4,3C37.8,74.2,37,74.3,36.2,74.3z M23,69.6 c4.8,3.2,8.6,4.2,15.6,3.8c3.4-0.4,6.7-1.3,9.9-2.8c-0.2-2.7-0.4-6.8-0.4-6.9c-0.1-1.1-0.8-2-1.9-2.3l-0.6-0.2 c-0.8-0.3-5.5-2.1-5.6-2.1c-0.4-0.1-0.8-0.5-1-0.9c-0.2-0.6-0.2-1.1-0.2-1.6c0-0.1,0.1-0.2,0.2-0.3c0.5-0.4,1-0.8,1.5-1.2 c0.8-0.7,1.3-1.5,1.6-2.5c0-0.3,0.2-0.6,0.5-0.9c0.2-0.1,0.3-0.2,0.5-0.3c0.3-0.1,0.5-0.3,0.6-0.5c0.5-1,0.7-2.1,0.8-3.2 c-0.2-0.4-0.5-0.7-1-0.7h-0.2c-0.2,0-0.3,0-0.4,0c-0.2,0-0.4,0.1-0.6-0.1c-0.2-0.2-0.2-0.4-0.2-0.5l0-3.6c0-2.7-2.8-4.9-6.4-5 l-0.1,0c-3.6,0.1-6.4,2.3-6.4,5l0,0.2c0,1.8,0,3,0,3.3c0,0.2,0,0.4-0.2,0.5c-0.2,0.1-0.4,0.1-0.5,0.1c-0.1,0-0.2,0-0.4,0l-0.2,0 c-0.4,0-0.8,0.3-1,0.7c0.1,1.1,0.4,2.2,0.9,3.2c0.1,0.2,0.3,0.3,0.6,0.5c0.2,0.1,0.3,0.2,0.5,0.3c0.3,0.2,0.5,0.6,0.5,0.9 c0.3,0.9,0.8,1.8,1.6,2.4c0.4,0.4,0.9,0.8,1.3,1.1c0.1,0.1,0.2,0.2,0.2,0.3c0,0.6-0.1,1.3-0.1,1.6c-0.2,0.6-0.6,0.9-1.1,1l-4.5,1.7 c-0.5,0.1-1,0.3-1.4,0.6c-1,0.5-1.6,1.4-1.8,2.4C23.1,65.7,23,67.7,23,69.6z"/><path fill="#d3a47d" d="M43.6 49.7l-.6-.1.1-1-.5.2-.2-.5 1-.4c.1 0 .2 0 .3 0 .1.1.1.2.1.3L43.6 49.7zM27.8 49.4L27.6 48c0-.1 0-.2.1-.3.1-.1.2-.1.3 0l1 .4-.2.5-.5-.2.1 1L27.8 49.4z"/><path fill="#472b29" d="M28.8 52.4C28.8 52.4 28.8 52.4 28.8 52.4c-.1 0-.2-.1-.2-.2l.1-5.6c0-.1.1-.2.2-.2.1 0 .2.1.2.2L29 52.2C29 52.3 28.9 52.4 28.8 52.4zM42.6 52.4c-.1 0-.2-.1-.2-.2l-.1-5.6c0-.1.1-.2.2-.2 0 0 0 0 0 0 .1 0 .2.1.2.2l.1 5.6C42.8 52.3 42.7 52.4 42.6 52.4 42.6 52.4 42.6 52.4 42.6 52.4z"/><path fill="#512c2b" d="M37.2 56.5c-.7-.2-1.2-.7-1.4-1.4-.2.7-.7 1.2-1.4 1.4-1.8.3-3.6-1.2-4.9-2.8.2.5.5 1.1.8 1.5 1.3 1.3 2.8 2.3 4.4 3.1.4.1.7.1 1.1.1.4 0 .7 0 1.1-.1 1.6-.8 3.1-1.8 4.4-3.1.4-.4.7-.9.8-1.5C40.8 55.3 39 56.9 37.2 56.5zM28.8 45c-.4 1 1-.2 1.3-.6.2-.5.4-1 .6-1.4.3.1 1 .2 1-.2s-.4-.5-.3-1c.2-.7 2-1.5 2.6-1 .1.1.3.5.2.7s-.5 0-.7 0c-.6.1-1.8.9-.4 1.6-.7-1.3 1.2.1 2.3-.2.8-.2 1.5-.9 1.5-1.7.1.1.3.2.5.3.6.2 2.3-.3 2.5.5.1.5-.7.7.2 1 .2.1.8 0 .9.1s-.3.5-.3.7c-.1.7 1.2.9 1.5.3.1-.2 0-.7 0-.9 0-.1 0-.1 0-.2.4.7.6 1.4.7 2.2.5-1.8.8-3.7 1-5.6-.3-.9-.3-.6-.8-.8-.6-.4-.3-.8-.7-1.2-.6-.6-2.5.1-2.8-.4-.2-.3.3-.5 0-.8-.2-.2-.8 0-1 0-.6-.2-.3-.3-.5-.8-.1-.3-.5-.5-.8-.5-.6-.1-1.2 0-1.8.3-.4.2-.7.7-1.1.8s-.9-.3-1.4-.3c-.5-.1-1 0-1.5.2-.7.4-.6 1.2-1.4 1.6-1.1.5-2.3.9-2.2 2.2.1 1 .8 4.9 1 5.9"/></svg>